<?xml version="1.0" encoding="utf-8"?>
<!-- Generator: Adobe Illustrator 28.1.0, SVG Export Plug-In . SVG Version: 6.00 Build 0)  -->
<svg version="1.1" id="Layer_1" xmlns="http://www.w3.org/2000/svg" xmlns:xlink="http://www.w3.org/1999/xlink" x="0px" y="0px"
	 width="400px" height="245px" viewBox="0 0 400 245" style="enable-background:new 0 0 400 245;" xml:space="preserve">
<style type="text/css">
	.st0{fill:#FFFFFF;}
	.st1{fill:#FFD040;}
	.st2{fill:#C10230;}
	.st3{fill:none;}
	.st4{fill:#262F3E;}
	.st5{fill-rule:evenodd;clip-rule:evenodd;fill:#F8991D;}
	.st6{fill:#1096D4;}
	.st7{fill:#4C84C4;}
</style>
<g>
	<g>
		<rect x="-471.7" y="26.7" class="st3" width="504" height="200.5"/>
	</g>
</g>
<path pointer-events="none" class="st3" d="M0,0h400v245H0V0z"/>
<path class="st4" d="M116.5,91.2c0,4.7,0.5,8.5,1.4,11.3c1,2.8,2.3,5.9,4.1,9.2c0.6,1,0.9,2,0.9,2.9c0,1.3-0.8,2.5-2.4,3.8l-8,5.3
	c-1.1,0.8-2.3,1.1-3.3,1.1c-1.3,0-2.5-0.6-3.8-1.8c-1.7-1.8-3.3-3.8-4.6-6c-1.3-2.2-2.5-4.6-3.9-7.5c-9.9,11.7-22.4,17.6-37.4,17.6
	c-10.7,0-19.2-3.1-25.5-9.2c-6.2-6.1-9.4-14.3-9.4-24.5c0-10.8,3.8-19.6,11.6-26.2c7.8-6.6,18.1-9.9,31.2-9.9c4.3,0,8.8,0.4,13.5,1
	c4.7,0.6,9.6,1.7,14.6,2.8v-9.3c0-9.7-2-16.4-6-20.4c-4.1-3.9-11-5.9-20.8-5.9c-4.5,0-9,0.5-13.8,1.7s-9.3,2.5-13.8,4.3
	c-2,0.9-3.6,1.4-4.5,1.7c-0.9,0.3-1.5,0.4-2,0.4c-1.8,0-2.7-1.3-2.7-3.9v-6.2c0-2,0.3-3.6,0.9-4.5c0.6-0.9,1.8-1.8,3.6-2.7
	c4.5-2.3,9.8-4.2,16-5.7C58.6,9,65.3,8.3,72.3,8.3c15.2,0,26.2,3.4,33.4,10.3c7,6.9,10.6,17.3,10.6,31.3v41.3H116.5z M64.7,110.5
	c4.2,0,8.5-0.8,13.1-2.3c4.6-1.5,8.7-4.3,12.1-8.2c2-2.4,3.6-5.1,4.3-8.2c0.8-3.1,1.3-6.8,1.3-11.1v-5.3c-3.7-0.9-7.6-1.7-11.7-2.2
	c-4-0.5-8-0.8-12-0.8c-8.5,0-14.8,1.7-19,5.1c-4.2,3.4-6.2,8.3-6.2,14.6c0,6,1.5,10.4,4.7,13.5C54.4,109,58.9,110.5,64.7,110.5z
	 M167,124.3c-2.3,0-3.8-0.4-4.8-1.3c-1-0.8-1.9-2.5-2.7-5l-29.9-98.4c-0.8-2.5-1.1-4.2-1.1-5.1c0-2,1-3.2,3.1-3.2H144
	c2.4,0,4.1,0.4,5,1.3c1,0.8,1.8,2.5,2.5,5l21.4,84.3l19.9-84.3c0.6-2.5,1.4-4.2,2.4-5c1-0.8,2.8-1.3,5.1-1.3h10.2
	c2.4,0,4.1,0.4,5.1,1.3c1,0.8,1.9,2.5,2.4,5l20.1,85.3l22-85.3c0.8-2.5,1.7-4.2,2.5-5c1-0.8,2.7-1.3,5-1.3h11.8c2,0,3.2,1,3.2,3.2
	c0,0.6-0.1,1.3-0.3,2c-0.1,0.8-0.4,1.8-0.9,3.2l-30.7,98.4c-0.8,2.5-1.7,4.2-2.7,5c-1,0.8-2.7,1.3-4.8,1.3h-11
	c-2.4,0-4.1-0.4-5.1-1.3c-1-0.9-1.9-2.5-2.4-5.1l-19.7-82.1l-19.6,82c-0.6,2.5-1.4,4.2-2.4,5.1c-1,0.9-2.8,1.3-5.1,1.3L167,124.3
	L167,124.3z M330.7,127.7c-6.6,0-13.2-0.8-19.6-2.3c-6.4-1.5-11.3-3.2-14.6-5.1c-2-1.1-3.4-2.4-3.9-3.6c-0.5-1.1-0.8-2.3-0.8-3.6
	v-6.5c0-2.7,1-3.9,2.9-3.9c0.8,0,1.5,0.1,2.3,0.4c0.8,0.3,1.9,0.8,3.2,1.3c4.5,2,9.2,3.5,14,4.5c5.1,1,10.1,1.5,15.2,1.5
	c8,0,14.3-1.4,18.6-4.2c4.3-2.8,6.6-6.9,6.6-12.1c0-3.6-1.1-6.5-3.4-8.9c-2.3-2.4-6.6-4.6-12.9-6.6l-18.5-5.7
	c-9.3-2.9-16.2-7.3-20.4-13c-4.2-5.6-6.4-11.8-6.4-18.5c0-5.3,1.1-10.1,3.4-14.1c2.3-4.1,5.3-7.6,9.2-10.4c3.8-2.9,8.1-5.1,13.2-6.6
	s10.4-2.2,16-2.2c2.8,0,5.7,0.1,8.5,0.5c2.9,0.4,5.6,0.9,8.3,1.4c2.5,0.6,5,1.3,7.3,2c2.3,0.8,4.1,1.5,5.3,2.3c1.8,1,3.1,2,3.8,3.2
	c0.8,1,1.1,2.4,1.1,4.2v6c0,2.7-1,4.1-2.9,4.1c-1,0-2.7-0.5-4.8-1.5c-7.3-3.3-15.4-5-24.5-5c-7.3,0-13,1.1-16.9,3.6s-6,6.1-6,11.3
	c0,3.6,1.3,6.6,3.8,9c2.5,2.4,7.3,4.8,14,7l18.1,5.7c9.2,2.9,15.8,7,19.7,12.2c3.9,5.2,5.9,11.2,5.9,17.8c0,5.5-1.1,10.4-3.3,14.8
	c-2.3,4.3-5.4,8.2-9.3,11.2c-3.9,3.2-8.7,5.5-14.1,7.1C343.1,126.8,337.2,127.7,330.7,127.7L330.7,127.7z"/>
<path class="st5" d="M354.7,189.6C312.8,220.6,252,237,199.6,237c-73.4,0-139.5-27.1-189.4-72.2c-3.9-3.6-0.4-8.4,4.3-5.6
	c54,31.3,120.6,50.3,189.5,50.3c46.5,0,97.6-9.7,144.5-29.5C355.6,176.8,361.6,184.5,354.7,189.6z"/>
<path class="st5" d="M372.2,169.8c-5.3-6.9-35.4-3.3-49-1.7c-4.1,0.5-4.7-3.1-1-5.7c23.9-16.8,63.3-12,67.9-6.4
	c4.6,5.7-1.3,45.1-23.7,63.9c-3.4,2.9-6.8,1.4-5.2-2.4C366.2,204.9,377.5,176.5,372.2,169.8L372.2,169.8z"/>
</svg>
