<?xml version="1.0" encoding="utf-8"?>
<!-- Generator: Adobe Illustrator 28.1.0, SVG Export Plug-In . SVG Version: 6.00 Build 0)  -->
<svg version="1.1" id="Layer_1" xmlns="http://www.w3.org/2000/svg" xmlns:xlink="http://www.w3.org/1999/xlink" x="0px" y="0px"
	 width="400px" height="245px" viewBox="0 0 400 245" style="enable-background:new 0 0 400 245;" xml:space="preserve">
<style type="text/css">
	.st0{fill:#FFFFFF;}
	.st1{fill:#FFD040;}
	.st2{fill:#C10230;}
	.st3{fill:none;}
	.st4{fill:#262F3E;}
	.st5{fill-rule:evenodd;clip-rule:evenodd;fill:#F8991D;}
	.st6{fill:#1096D4;}
	.st7{fill:#4C84C4;}
</style>
<path pointer-events="none" class="st3" d="M1.3,2.5h400v245H1.3V2.5z"/>
<path class="st6" d="M118,158.1h17.1v66.8H118V158.1z M270.8,177.3c-0.5-0.5-5.9-3.7-14.4-3.7c-10.7,0-18.7,7.5-18.7,17.6
	c0,10.1,7.5,17.6,18.7,17.6c8,0,13.4-3.2,14.4-3.7v18.2c-2.1,0.5-8,2.1-15.5,2.1c-19.2,0-35.8-12.8-35.8-34.7
	c0-19.8,15-34.7,35.8-34.7c8,0,13.9,2.1,15.5,2.1V177.3L270.8,177.3z M94.5,177.3c-0.5-0.5-5.9-3.7-14.4-3.7
	c-10.7,0-18.7,7.5-18.7,17.6c0,10.1,7.5,17.6,18.7,17.6c8,0,13.4-3.2,14.4-3.7v18.2c-2.1,0.5-8,2.1-15.5,2.1
	c-18.7,0-35.8-12.8-35.8-34.7c0-19.8,15-34.7,35.8-34.7c8,0,13.9,2.1,15.5,2.1V177.3L94.5,177.3z M358.9,191.7
	c0,19.2-15,34.7-35.3,34.7c-20.3,0-35.3-15.5-35.3-34.7c0-19.2,15-34.7,35.3-34.7C344.5,157,358.9,172.5,358.9,191.7L358.9,191.7z
	 M323.7,174.1c-10.1,0-17.6,8-17.6,17.6c0,9.6,7.5,17.6,17.6,17.6s17.6-8,17.6-17.6C341.3,182.1,333.8,174.1,323.7,174.1z
	 M198.7,173.6c0,0-7.5-2.1-13.4-2.1c-6.9,0-10.7,2.1-10.7,5.3c0,4.3,4.8,5.3,7.5,6.4l4.8,1.6c10.7,3.7,16,11.2,16,19.2
	c0,16.6-15,22.4-27.8,22.4c-9.1,0-17.6-1.6-18.2-1.6v-15.5c1.6,0.5,8.5,2.7,16,2.7c8.5,0,12.3-2.7,12.3-6.4c0-3.2-3.2-5.3-7.5-6.4
	c-1.1-0.5-2.7-1.1-3.7-1.1c-9.6-3.2-17.1-8.5-17.1-19.8c0-12.3,9.6-20.8,25.1-20.8c8,0,16,2.1,16.6,2.1L198.7,173.6L198.7,173.6z
	 M25.6,86.5c0-4.8-3.7-8.5-8.5-8.5c-4.8,0-8.5,3.7-8.5,8.5v17.6c0,4.8,3.7,8.5,8.5,8.5c4.8,0,8.5-3.7,8.5-8.5V86.5z M71.5,63.5
	c0-4.8-3.7-8.5-8.5-8.5s-8,3.7-8,8.5v40.6c0,4.8,3.7,8.5,8.5,8.5s8.5-3.7,8.5-8.5V63.5H71.5z M118,32c0-4.8-3.7-8.5-8.5-8.5
	c-4.8,0-8.5,3.7-8.5,8.5v88.7c0,4.8,3.7,8.5,8.5,8.5c4.8,0,8.5-3.7,8.5-8.5V32z M164,63.5c0-4.8-3.7-8.5-8.5-8.5
	c-4.8,0-8.5,3.7-8.5,8.5v40.6c0,4.8,3.7,8.5,8.5,8.5c4.8,0,8.5-3.7,8.5-8.5V63.5z M209.9,86.5c0-4.8-3.7-8.5-8.5-8.5
	c-4.8,0-8.5,3.7-8.5,8.5v17.6c0,4.8,3.7,8.5,8.5,8.5c4.8,0,8.5-3.7,8.5-8.5V86.5z M255.8,63.5c0-4.8-3.7-8.5-8.5-8.5
	c-4.8,0-8.5,3.7-8.5,8.5v40.6c0,4.8,3.7,8.5,8.5,8.5c4.8,0,8.5-3.7,8.5-8.5V63.5z M301.8,32c0-4.8-3.7-8.5-8.5-8.5
	c-4.8,0-8.5,3.7-8.5,8.5v88.7c0,4.8,3.7,8.5,8.5,8.5c4.8,0,8.5-3.7,8.5-8.5V32z M347.7,63.5c0-4.8-3.7-8.5-8.5-8.5
	c-4.8,0-8.5,3.7-8.5,8.5v40.6c0,4.8,3.7,8.5,8.5,8.5c4.8,0,8.5-3.7,8.5-8.5V63.5z M393.7,86.5c0-4.8-3.7-8.5-8.5-8.5
	c-4.8,0-8.5,3.7-8.5,8.5v17.6c0,4.8,3.7,8.5,8.5,8.5c4.8,0,8.5-3.7,8.5-8.5V86.5z"/>
</svg>
