<?xml version="1.0" encoding="utf-8"?>
<!-- Generator: Adobe Illustrator 28.1.0, SVG Export Plug-In . SVG Version: 6.00 Build 0)  -->
<svg version="1.1" id="Layer_1" xmlns="http://www.w3.org/2000/svg" xmlns:xlink="http://www.w3.org/1999/xlink" x="0px" y="0px"
	 width="400px" height="245px" viewBox="0 0 400 245" style="enable-background:new 0 0 400 245;" xml:space="preserve">
<style type="text/css">
	.st0{fill:#FFFFFF;}
	.st1{fill:#FFD040;}
	.st2{fill:#C10230;}
	.st3{fill:none;}
	.st4{fill:#262F3E;}
	.st5{fill-rule:evenodd;clip-rule:evenodd;fill:#F8991D;}
	.st6{fill:#1096D4;}
	.st7{fill:#4C84C4;}
</style>
<g>
	<polygon class="st7" points="395.3,58.9 330.3,58.9 334.3,47.7 395.3,47.7 	"/>
	<path class="st7" d="M221.9,47.7h60.4l3.9,11.3h-64.3C222,58.9,221.9,47.7,221.9,47.7z"/>
	<path class="st7" d="M174.1,47.7c9.9,1,18.6,4.5,26,11.3H90.6V47.7H174.1z"/>
	<g>
		<rect x="4.7" y="47.7" class="st7" width="76" height="11.2"/>
	</g>
	<path class="st7" d="M395.3,79.9h-72.5l3.9-11.2h68.5V79.9z"/>
	<polygon class="st7" points="293.8,79.9 221.9,79.9 221.9,68.8 289.8,68.8 	"/>
	<path class="st7" d="M208.5,68.8c1.5,3.7,3.1,6.9,3.1,11.2h-121V68.8H208.5z"/>
	<g>
		<rect x="4.7" y="68.8" class="st7" width="76" height="11.2"/>
	</g>
	<polygon class="st7" points="315.4,101 319.4,89.9 373.8,89.9 373.8,101 	"/>
	<polygon class="st7" points="297.2,89.9 301.3,101 243.4,101 243.4,89.9 	"/>
	<path class="st7" d="M212.6,89.8c0,3.8-0.5,7.8-1.6,11.2h-33.1V89.8H212.6z"/>
	<g>
		<rect x="25.9" y="89.9" class="st7" width="32.7" height="11.2"/>
	</g>
	<g>
		<rect x="112.6" y="89.8" class="st7" width="32.7" height="11.2"/>
	</g>
	<path class="st7" d="M275.5,113.1v8.5h-32.2v-11.2h61.2l3.8,10.4l3.6-10.4h61.7v11.2h-32v-8.5l-2.9,8.5h-60.4L275.5,113.1z"/>
	<path class="st7" d="M112.6,110.4h93.7l0,0c-2.1,3.7-5.8,8.2-9.3,11.2h-84.3V110.4z"/>
	<g>
		<rect x="25.9" y="110.4" class="st7" width="32.7" height="11.2"/>
	</g>
	<g>
		<rect x="341.9" y="131.5" class="st7" width="32" height="11.2"/>
	</g>
	<path class="st7" d="M275.5,131.5h-32.2v11.2h32.2C275.5,142.6,275.6,131.5,275.5,131.5z"/>
	<path class="st7" d="M335.4,131.5c-0.1,0-3.7,11.2-3.9,11.2H286l-4-11.2H335.4z"/>
	<path class="st7" d="M112.6,131.5h84.1c3.8,3.2,7.4,7.2,10,11.2c0.2,0-94.2,0-94.2,0C112.6,142.6,112.6,131.5,112.6,131.5z"/>
	<path class="st7" d="M58.5,142.6v-11.2H26v11.2H58.5z"/>
	<g>
		<rect x="341.9" y="152.5" class="st7" width="32" height="11.2"/>
	</g>
	<g>
		<rect x="243.4" y="152.5" class="st7" width="32.2" height="11.2"/>
	</g>
	<path class="st7" d="M324,163.7c0-0.1,3.9-11.2,4-11.2h-38.7c-0.1,0,3.9,11.2,3.9,11.2S324,163.8,324,163.7z"/>
	<path class="st7" d="M112.6,163.7v-11.2h33.1v11.2C145.6,163.7,112.6,163.7,112.6,163.7z"/>
	<path class="st7" d="M211.4,152.5c1.6,3.3,1.8,7.4,2.1,11.2h-35.1v-11.2H211.4z"/>
	<g>
		<rect x="26" y="152.5" class="st7" width="32.7" height="11.2"/>
	</g>
	<g>
		<rect x="341.9" y="173.1" class="st7" width="53.4" height="11.2"/>
	</g>
	<g>
		<rect x="221.9" y="173.1" class="st7" width="53.5" height="11.2"/>
	</g>
	<polygon class="st7" points="316.8,184.3 300.5,184.3 296.5,173.1 320.6,173.1 	"/>
	<path class="st7" d="M4.7,173.1v11.2h76v-11.2C80.7,173.1,4.6,173.1,4.7,173.1z"/>
	<path class="st7" d="M212.1,173.1c-0.8,3.7-1.6,8.1-4.2,11.2h-1H90.6v-11.2H212.1z"/>
	<polygon class="st7" points="309.4,205.4 307.9,205.4 304.1,194.2 313.3,194.2 	"/>
	<g>
		<rect x="341.9" y="194.2" class="st7" width="53.4" height="11.2"/>
	</g>
	<path class="st7" d="M90.6,205.4v-11.2c0,0,109.7,0,110,0c-7.4,7.1-17.5,11-28.3,11.2H90.6"/>
	<g>
		<rect x="221.9" y="194.2" class="st7" width="53.5" height="11.2"/>
	</g>
	<path class="st7" d="M80.7,194.2v11.2c0,0-75.9,0-76,0v-11.2C4.7,194.2,80.6,194.3,80.7,194.2z"/>
</g>
</svg>
