<?xml version="1.0" encoding="UTF-8" standalone="no"?>
<svg
   xmlns:dc="http://purl.org/dc/elements/1.1/"
   xmlns:cc="http://creativecommons.org/ns#"
   xmlns:rdf="http://www.w3.org/1999/02/22-rdf-syntax-ns#"
   xmlns:svg="http://www.w3.org/2000/svg"
   xmlns="http://www.w3.org/2000/svg"
   viewBox="0 0 465.72 55.173332"
   height="55.173332"
   width="465.72"
   xml:space="preserve"
   id="svg2"
   version="1.1"><metadata
     id="metadata8"><rdf:RDF><cc:Work
         rdf:about=""><dc:format>image/svg+xml</dc:format><dc:type
           rdf:resource="http://purl.org/dc/dcmitype/StillImage" /></cc:Work></rdf:RDF></metadata><defs
     id="defs6" /><g
     transform="matrix(1.3333333,0,0,-1.3333333,0,55.173333)"
     id="g10"><g
       transform="scale(0.1)"
       id="g12"><path
         id="path14"
         style="fill:#2a3073;fill-opacity:1;fill-rule:nonzero;stroke:none"
         d="m 3492.86,110.078 c 0,-56.2108 -16.33,-72.7928 -61.1,-86.3085 C 3383.25,9.08203 3297.15,0 3245.86,0 3185.2,0 3109.61,3.94531 3045.12,18.7305 v 64.9804 h 355.86 v 88.3011 h -251.87 c -75.71,0 -103.91,20.84 -103.91,94.785 v 38.613 c 0,58.281 17.23,75.86 64.57,88.098 47.62,12.324 125.66,20.281 176.6,20.281 61.84,0 136.17,-4.824 200.86,-19.148 v -65.012 h -350.16 v -74.68 h 251.88 c 75.74,0 103.91,-20.418 103.91,-94.363 v -50.508" /><path
         id="path16"
         style="fill:#2a3073;fill-opacity:1;fill-rule:nonzero;stroke:none"
         d="M 2885.9,18.6328 C 2812.15,4.00391 2737.89,0 2665.98,0 2594.07,0 2518.44,4.00391 2444.69,18.6328 V 394.641 c 73.75,14.617 148.48,19.148 220.39,19.148 71.92,0 145.31,-4.531 219.06,-19.148 v -67.09 H 2550.9 v -75.11 h 216.99 V 174.434 H 2550.9 V 85.7031 h 335 V 18.6328" /><path
         id="path18"
         style="fill:#2a3073;fill-opacity:1;fill-rule:nonzero;stroke:none"
         d="M 2317.47,18.6328 C 2251.29,3.94531 2184.54,0 2120.4,0 2056.25,0 1988.17,3.94531 1922,18.6328 V 404.434 h 106.21 V 90.6641 h 289.26 V 18.6328" /><path
         id="path20"
         style="fill:#2a3073;fill-opacity:1;fill-rule:nonzero;stroke:none"
         d="M 1794.61,16.2695 C 1759.22,6.11328 1712.47,2.5 1677.66,1.89453 L 1514.1,332.285 h -9.14 L 1341.44,1.89453 C 1306.56,2.5 1265.51,6.11328 1230.16,16.2695 l 207.11,387.9885 h 147.65 L 1794.61,16.2695" /><path
         id="path22"
         style="fill:#2a2c6b;fill-opacity:1;fill-rule:nonzero;stroke:none"
         d="m 1578.83,114.863 c 0,-37.9489 -31.25,-68.7497 -69.22,-68.7497 -38.01,0 -68.75,30.8398 -68.75,68.7497 0,37.93 30.82,68.77 68.75,68.77 37.89,0 69.22,-30.742 69.22,-68.77" /><path
         id="path24"
         style="fill:#2a3073;fill-opacity:1;fill-rule:nonzero;stroke:none"
         d="M 1102.11,15.8398 C 1068.2,6.09375 1031.95,2.53906 995.859,1.89453 V 170.449 H 731.992 V 1.89453 C 695.898,2.53906 659.688,6.09375 625.781,15.8398 V 397.031 c 33.907,9.758 70.117,13.313 106.211,13.965 V 248.32 h 263.867 v 162.676 c 36.091,-0.652 72.301,-4.207 106.251,-13.965 V 15.8398" /><path
         id="path26"
         style="fill:#2a3073;fill-opacity:1;fill-rule:nonzero;stroke:none"
         d="M 477.813,326.582 H 291.484 V 8.65234 H 186.328 V 326.582 H 0 v 67.852 c 80.2344,14.609 160.82,19.152 239.18,19.152 78.203,0 158.554,-4.563 238.633,-19.152 v -67.852" /><path
         id="path28"
         style="fill:#2a3073;fill-opacity:1;fill-rule:nonzero;stroke:none"
         d="m 3492.86,110.078 c 0,-56.2108 -16.33,-72.7928 -61.1,-86.3085 C 3383.25,9.08203 3297.15,0 3245.86,0 3185.2,0 3109.61,3.94531 3045.12,18.7305 v 64.9804 h 355.86 v 88.3011 h -251.87 c -75.71,0 -103.91,20.84 -103.91,94.785 v 38.613 c 0,58.281 17.23,75.86 64.57,88.098 47.62,12.324 125.66,20.281 176.6,20.281 61.84,0 136.17,-4.824 200.86,-19.148 v -65.012 h -350.16 v -74.68 h 251.88 c 75.74,0 103.91,-20.418 103.91,-94.363 v -50.508" /><path
         id="path30"
         style="fill:#2a3073;fill-opacity:1;fill-rule:nonzero;stroke:none"
         d="M 2885.9,18.6328 C 2812.15,4.00391 2737.89,0 2665.98,0 2594.07,0 2518.44,4.00391 2444.69,18.6328 V 394.641 c 73.75,14.617 148.48,19.148 220.39,19.148 71.92,0 145.31,-4.531 219.06,-19.148 v -67.09 H 2550.9 v -75.11 h 216.99 V 174.434 H 2550.9 V 85.7031 h 335 V 18.6328" /><path
         id="path32"
         style="fill:#2a3073;fill-opacity:1;fill-rule:nonzero;stroke:none"
         d="M 2317.47,18.6328 C 2251.29,3.94531 2184.54,0 2120.4,0 2056.25,0 1988.17,3.94531 1922,18.6328 V 404.434 h 106.21 V 90.6641 h 289.26 V 18.6328" /><path
         id="path34"
         style="fill:#2a3073;fill-opacity:1;fill-rule:nonzero;stroke:none"
         d="M 1794.61,16.2695 C 1759.22,6.11328 1712.47,2.5 1677.66,1.89453 L 1514.1,332.285 h -9.14 L 1341.44,1.89453 C 1306.56,2.5 1265.51,6.11328 1230.16,16.2695 l 207.11,387.9885 h 147.65 L 1794.61,16.2695" /><path
         id="path36"
         style="fill:#6bc6d6;fill-opacity:1;fill-rule:nonzero;stroke:none"
         d="m 1578.83,114.863 c 0,-37.9489 -31.25,-68.7497 -69.22,-68.7497 -38.01,0 -68.75,30.8398 -68.75,68.7497 0,37.93 30.82,68.77 68.75,68.77 37.89,0 69.22,-30.742 69.22,-68.77" /><path
         id="path38"
         style="fill:#2a3073;fill-opacity:1;fill-rule:nonzero;stroke:none"
         d="M 1102.11,15.8398 C 1068.2,6.09375 1031.95,2.53906 995.859,1.89453 V 170.449 H 731.992 V 1.89453 C 695.898,2.53906 659.688,6.09375 625.781,15.8398 V 397.031 c 33.907,9.758 70.117,13.313 106.211,13.965 V 248.32 h 263.867 v 162.676 c 36.091,-0.652 72.301,-4.207 106.251,-13.965 V 15.8398" /><path
         id="path40"
         style="fill:#2a3073;fill-opacity:1;fill-rule:nonzero;stroke:none"
         d="M 477.813,326.582 H 291.484 V 8.65234 H 186.328 V 326.582 H 0 v 67.852 c 80.2344,14.609 160.82,19.152 239.18,19.152 78.203,0 158.554,-4.563 238.633,-19.152 v -67.852" /></g></g></svg>