<?xml version="1.0" encoding="utf-8"?>
<!-- Generator: Adobe Illustrator 28.1.0, SVG Export Plug-In . SVG Version: 6.00 Build 0)  -->
<svg version="1.1" id="Layer_1" xmlns="http://www.w3.org/2000/svg" xmlns:xlink="http://www.w3.org/1999/xlink" x="0px" y="0px"
	 width="400px" height="245px" viewBox="0 0 400 245" style="enable-background:new 0 0 400 245;" xml:space="preserve">
<style type="text/css">
	.st0{fill:#FFFFFF;}
	.st1{fill:#FFD040;}
	.st2{fill:#C10230;}
	.st3{fill:none;}
	.st4{fill:#262F3E;}
	.st5{fill-rule:evenodd;clip-rule:evenodd;fill:#F8991D;}
	.st6{fill:#1096D4;}
	.st7{fill:#4C84C4;}
</style>
<g>
	<g>
		<polygon points="101.8,111.4 109.7,111.4 116.6,133.9 124.1,111.3 130.4,111.3 137.8,133.9 144.8,111.4 152.4,111.4 141,144.9 
			134.7,144.9 127.1,123.1 119.6,144.9 113.2,144.9 		"/>
		<path d="M171.8,131l-4.4-10.8l-4.4,10.8H171.8z M164.1,111.4h6.8l14.3,33.4h-7.7l-3-7.5h-14.1l-3.1,7.5h-7.5L164.1,111.4z"/>
		<polygon points="193.1,118.4 183,118.4 183,111.7 210.6,111.7 210.6,118.4 200.5,118.4 200.5,144.9 193.1,144.9 		"/>
		<polygon points="216.2,111.7 241.4,111.7 241.4,118.2 223.5,118.2 223.5,124.9 239.2,124.9 239.2,131.4 223.5,131.4 223.5,138.4 
			241.6,138.4 241.6,144.9 216.2,144.9 		"/>
		<path d="M264.3,127.8c3.6,0,5.6-1.9,5.6-4.7V123c0-3.1-2.2-4.7-5.8-4.7h-7.3v9.5H264.3z M249.5,111.7h15.3c4.2,0,7.5,1.2,9.7,3.4
			c1.9,1.8,2.9,4.4,2.9,7.6v0.1c0,5.4-2.9,8.7-7.1,10.3l8.1,11.9h-8.6l-7.1-10.6h-5.8v10.6h-7.3V111.7z"/>
		<polygon points="285.4,111.7 292.8,111.7 292.8,138.2 308.4,138.2 308.4,144.9 285.4,144.9 		"/>
		<path d="M337.3,128.4L337.3,128.4c0-5.8-4.2-10.5-10.1-10.5c-5.9,0-10,4.7-10,10.3v0.1c0,5.7,4.2,10.4,10.1,10.4
			C333.2,138.7,337.3,134.1,337.3,128.4 M309.5,128.4L309.5,128.4c0-9.5,7.5-17.3,17.8-17.3c10.3,0,17.7,7.6,17.7,17.1v0.1
			c0,9.4-7.5,17.2-17.8,17.2C316.9,145.4,309.5,137.8,309.5,128.4"/>
		<path d="M374.8,128.4L374.8,128.4c0-5.8-4.2-10.5-10.1-10.5c-5.9,0-10,4.7-10,10.3v0.1c0,5.7,4.2,10.4,10.1,10.4
			C370.7,138.7,374.8,134.1,374.8,128.4 M347,128.4L347,128.4c0-9.5,7.5-17.3,17.8-17.3c10.3,0,17.7,7.6,17.7,17.1v0.1
			c0,9.4-7.5,17.2-17.8,17.2C354.4,145.4,347,137.8,347,128.4"/>
		<g>
			<path d="M120.4,94.9v-8.7h3.4v8.7c0,2.5,1.3,3.8,3.3,3.8c2.1,0,3.3-1.2,3.3-3.7v-8.8h3.4v8.6c0,4.6-2.6,6.9-6.7,6.9
				C123,101.7,120.4,99.4,120.4,94.9z"/>
			<path d="M142.8,86.1h3.1l7.2,9.4v-9.4h3.3v15.3h-2.9l-7.4-9.7v9.7h-3.3V86.1z"/>
			<path d="M166.1,86.1h3.4v15.3h-3.4V86.1z"/>
			<path d="M177.8,86.1h3.7l4,10.8l4-10.8h3.6l-6.2,15.4h-3L177.8,86.1z"/>
			<path d="M201.3,86.1h11.6v3h-8.2v3.1h7.2v3h-7.2v3.2h8.3v3h-11.7V86.1z"/>
			<path d="M221.8,86.1h7c2,0,3.5,0.5,4.5,1.6c0.9,0.8,1.3,2.1,1.3,3.5v0c0,2.5-1.3,4-3.3,4.7l3.8,5.5h-4l-3.3-4.9h-2.7v4.9h-3.4
				V86.1z M228.6,93.6c1.6,0,2.6-0.9,2.6-2.2v0c0-1.4-1-2.2-2.7-2.2h-3.4v4.4H228.6z"/>
			<path d="M242.4,99.2l2-2.4c1.4,1.1,2.8,1.9,4.6,1.9c1.4,0,2.2-0.5,2.2-1.4v0c0-0.9-0.5-1.3-3.1-1.9c-3.1-0.8-5.1-1.6-5.1-4.7v0
				c0-2.8,2.2-4.6,5.4-4.6c2.2,0,4.2,0.7,5.7,1.9l-1.8,2.5c-1.4-0.9-2.7-1.5-4-1.5s-2,0.6-2,1.3v0c0,1,0.7,1.3,3.3,2
				c3.1,0.8,4.9,1.9,4.9,4.6v0c0,3-2.3,4.7-5.6,4.7C246.6,101.6,244.3,100.8,242.4,99.2z"/>
			<path d="M263.5,86.1h3.4v15.3h-3.4V86.1z"/>
			<path d="M280,89.2h-4.7v-3.1h12.7v3.1h-4.7v12.2H280V89.2z"/>
			<path d="M300.8,95.4l-5.9-9.3h4l3.7,6.1l3.7-6.1h3.8l-5.9,9.2v6.1h-3.4V95.4z"/>
			<path d="M329.3,93.8L329.3,93.8c0-4.4,3.4-8,8.2-8c4.7,0,8.1,3.5,8.1,7.9v0c0,4.3-3.4,7.9-8.2,7.9
				C332.7,101.7,329.3,98.2,329.3,93.8z M342.1,93.8L342.1,93.8c0-2.7-1.9-4.8-4.7-4.8c-2.7,0-4.6,2.1-4.6,4.8v0
				c0,2.6,1.9,4.8,4.7,4.8C340.2,98.6,342.1,96.4,342.1,93.8z"/>
			<path d="M352.9,86.1h11.7v3.1h-8.3v3.3h7.3v3.1h-7.3v5.9h-3.4V86.1z"/>
		</g>
	</g>
	<g>
		<path class="st0" d="M54.9,170.3l-0.9-0.4c-10-4.6-18-11.3-23.3-19.3c-12.6-19.3-13-39.1-13.5-60.2c0-1.6-0.1-3.2-0.1-4.8
			l-0.1-2.2h75.6l-0.1,2.2c0,1.6-0.1,3.2-0.1,4.8c-0.4,21-0.9,40.9-13.5,60.2c-5.2,8-13.3,14.7-23.2,19.3L54.9,170.3z"/>
	</g>
	<path class="st1" d="M54.8,109.3l-29.6,23.2c-4.8-14.7-4.6-30-5-45.6h69.1c-0.4,15.7-0.2,30.9-5,45.6L54.8,109.3z"/>
	<path class="st1" d="M78.7,145.1c-0.7,1.3-1.5,2.6-2.3,3.9c-5.3,8-13.1,14-21.7,18c-8.6-4-16.5-9.9-21.7-18
		c-0.8-1.2-2.3-3.8-2.3-3.8L54.8,126L78.7,145.1z"/>
	<path class="st2" d="M34.5,98.7c-3.5-0.7-6.6-3.3-5.9-6.6c0,0-0.1-0.8-0.4-1c0,0-0.1-0.1-0.1-0.1c-0.1,0-0.2-0.1-0.4-0.2
		c0,0-0.2-0.1-0.2-0.1c-0.1,0.1,0,0.3-0.1,0.4c0,0-0.1,0.1-0.1,0.1c-0.1,0-0.1,0.1-0.1,0.1c-0.3,0.3-0.1,0.7-0.1,1
		c0,0.1,0,0.2,0,0.2c-0.1,0,0,0-0.2-0.1c0,0-0.1-0.1-0.1-0.1c-0.1,0-0.3-0.1-0.3-0.1c0-0.1,0-0.1-0.1-0.1c-0.1-0.1-0.1-0.3-0.2-0.5
		c0,0-0.1-0.2-0.1-0.3c0-0.2-0.6-0.6-0.3-0.4c0.1,0.1,0-0.1-0.3-0.2c-0.2,0-0.4,0-0.6,0c0,0-0.1,0-0.1,0.1c-0.2,0.2-0.4,0.4-0.7,0.4
		c0,0,0.1,0,0.1,0.1c0.1,0.2,0,0.4,0.1,0.6c0.1,0.2,0.2,0.3,0.4,0.5c0.2,0.1,0.4,0,0.6,0.2c0,0,0.3,0.1,0,0.3c-0.5,0.5-1,0.1-1.4,1
		c0.6-0.3,0.7,0.6,0.9,0.7c1.1,0.2,2,0.4,2.6,1.5c0.4,0.7-0.7,0.7,0.3,0.9c0.5,0.1,0.8,0.3,1.1,0.7c0.3,0.4,0.3,0.8,0.6,1.2
		c0.2,0.2,0.3,0.3,0.5,0.5c0.1,0.1,0.5,0.2,0.6,0.2c0.1,0,0.2,0.1,0.3,0.1c0.1,0,0.3,0.1,0.4,0.2c0.1,0.1,0.3,0.2,0.4,0.3
		c0.1,0.2,0,0.4,0.1,0.6c0,0.1,0.2,0,0.2,0c0.1,0,0.2,0,0.2,0c0.2-0.1,0.3-0.1,0.5-0.1c0.3,0,0.2,0.1,0.6,0c0.1,0,0.1,0.1,0.2,0.1
		c0.1,0,0.2,0.1,0.2,0c0.1-0.3,0.3-0.6,0.5-0.9c0.2-0.3,0.2-0.3,0.4-0.7C34.2,98.9,34.5,98.7,34.5,98.7"/>
	<path class="st2" d="M25.8,99.1c1,0.5,0.9,1.9,1.8,2.3c1.6,0.8,3.6,1.3,5.4,0.5c-0.4,1.2,0,2.2-0.1,2.4c-0.5,0.4-2.2-0.1-3.3-0.5
		c-0.7-0.3-1.3,0.8-2.1,0.7c0-0.1,0.1-0.4,0.1-0.5c-0.1-0.4-0.2-0.5-0.9-0.4c-0.4,0-0.2,0.4-0.9,0.7c-0.3-0.1-0.8-0.3-0.9,0.2
		c0,0.2-0.5-0.8-0.4-0.9c0.4-0.7,0.5-0.9,0.5-1.1c0-0.2-1-0.6-1.1-0.4c-0.3,0.5-1.1-1.6,1.3-1.4c-0.7-0.4-0.6-0.5-0.4-1
		c0-0.1-0.2-0.3-0.4-0.1c-0.1-0.2,0.1-0.4,0.2-0.4C24.9,98.9,25.3,98.9,25.8,99.1"/>
	<path class="st2" d="M30.6,94.1c1.5,0.3,3.7-1.6,5,0.7C34.6,94.4,31.8,95.9,30.6,94.1"/>
	<path class="st2" d="M43,97.3c0,1.9-2,4-0.4,5.8c-0.7,0-1.4-0.2-1.9-0.6c-0.3-0.2-0.2,0.9-0.2,1.1c0,0.2-1.2-1.2-1.7-0.8
		c-1.3,1-1.9,1.4-3.9,1.4c-0.6,0-0.8,0.5-1,0.9c-0.5-0.9-0.1-3,0.1-3.9c0.7-2.5,3.3-3.3,5.3-4.5c1.5-0.9,2.1-2.6,2-4.2
		C42.5,93.8,43,95.7,43,97.3"/>
	<path class="st2" d="M33.6,119c0.3,0.1,0.1,0.3,0,0.3c-0.2,0.1-0.3,0.3-0.5,0.5c-0.1,0.2-0.2,0.3-0.1,0.5c0,0.1,0.1,0.3,0.1,0.4
		c0,0.1,0.1,0.1,0.2,0.2c0,0,0.1,0.1,0.1,0.1c-0.1-0.2,0.2-0.4,0.3-0.4c1.3,0.7,1.3-0.8,2.1-1.3c0.3-0.2,1.1,0,0.9,0.7
		c0.8-0.4,1-1.4,1.6-2.1c1.3-1.4,3.1-2.4,4.9-3.1c-0.6-0.7-1.6-1.2-2-2c-0.2-0.4-0.5-1.1,0-1c2.1,0.6,3.3-0.7,3.6-2.4
		c3.2,0.4,4-2.6,4.4-4.8c0.2-1.1,0.8-1.2,0.2-3.1c-0.3-0.8,1.4-1,1.1-2.4c-0.1-0.4-0.5-0.7-0.8-0.8c0.3,0.7-1,0.9-1.1,1.2
		c-0.2,0.5-0.5,0.8-0.5,1.3c-1-1.4-0.2-3.1,0.8-4.5c1.4-1.9,4.4-0.9,5.6,0.3c0-0.6-0.5-1.4-0.9-1.8c1.2-0.1,2.4,0.6,4-0.3
		c0.9-0.5,1.8-0.9,2.3-2c-1.9,0.3-4.6-1.2-6.3-1.5c-3.3-0.6-5.4,1.6-6.6,4.3c-1.2,2.6-0.4,4.6,0.8,6.6c0.3,0.5-1.1,0.2-1.7,0.5
		c-0.6,0.3-0.8,1-0.7,1.6c0.7-0.7,2.5-0.3,2.7,1c0.2,1.7-1.5,4.2-3.2,3.5c-1.8-0.8-2.8-2.7-3.4-4.8c-1.5,1.3-4.4,0.2-5.7,1.5
		c-1.3,1.2,2,2,3.2,2.6c0.5,0.2,0.9,0.7,0.8,1.3c-2-1.1-4.3,0.2-4.2,2.2c0.1,1.6,2,2.5,3.6,2.6c0.7,0.1,1.1,0.8,0.3,1.3
		c-1.4,0.9-3,1.9-4.5,0.3c-0.3-0.3-1.2-0.1-1.3,0.4c-0.1,0.2-0.1,0.6-0.1,0.8c0.1-0.1,0.2-0.3,0.3-0.3c0.1,0,0.3,0.2,0.3,0.3
		c-0.1,0.8-1.2,0.3-1.5,0.9c0,0,0,0,0,0c0,0,0,0.1-0.1,0.1c-0.2,0.4-0.5,0.7,0,1c0-0.1,0.3,0.3,0.2,0.4c0-0.4,0.4-0.4,0.4-0.4l0.2,0
		L33.6,119z"/>
	<path class="st2" d="M27,111.7c-0.2-0.1-0.4,0-0.6,0.1c-0.1,0.1-0.3,0-0.4,0.1c0,0.1-0.1,0.2,0,0.3c0,0,0,0.1,0.1,0.2
		c-0.3,0-0.5-0.2-0.7-0.4c-0.1-0.1-0.1-0.1-0.2-0.2c0,0,0-0.1-0.1-0.2c0-0.1,0-0.1,0-0.2c0-0.2,0-0.4,0.1-0.5c0-0.1,0.1-0.2,0.1-0.2
		c0-0.1,0.1-0.1,0.1-0.1c0.1-0.1,0.3-0.2,0.5-0.3c0.3-0.1,0.6-0.1,0.8,0.1c0.2,0.1,0.4,0.1,0.7,0.1c0.1,0,0.3-0.3,0.2-0.3
		c-0.7-0.2-0.7-0.3-0.9-1c-0.1-0.1-0.3,0-0.3,0.1c0-1.3,1.5-1.4,2.2-0.9c0.9,0.8,0.2,2.2,1.4,2.7c0.6,0.2,1.2,0.4,1.9,0.1
		c1.1-0.5,0-1.6,0.4-2.6c0.7-1.9,2.4-2,4.3-0.2c-1.7,0.6-2.5,2.9-1.6,4.4c-1.5-0.6-3.5,0.4-4.5,1.1c1-1-0.4-1.8-0.8-1.6l-0.4,0.3
		c-0.2,0.3-0.2,0.5-0.5,0.8c-0.1,0.1-0.2,0.2-0.4,0.2c-0.3,0.1-0.4,0-0.6-0.1c0,0-0.2,0-0.2,0.1c-0.1,0.2,0,0.2,0,0.3
		c0,0-0.2-0.1-0.2-0.2c-0.1-0.1-0.3-0.2-0.4-0.3c-0.1-0.1-0.2-0.5,0-0.7c0.1-0.2,0.3-0.3,0.4-0.4C27.2,111.9,27.1,111.7,27,111.7"/>
	<path class="st2" d="M64.2,94.7c0.1,0.1,0,0.3-0.2,0.4c-0.2,0.1-0.4,0-0.6,0c-0.7,0.3-0.7,2.1-0.6,1.8c0.1-0.2,0.6-0.1,1,0
		c0.6,0.1,1-1,1.4-1c0.9,0.1,1.7,1.2,2,1.9c0.1,0.1-0.4,0.1-0.4,0.6c1.2-0.1,2.2,0.7,3.1,1.4c0.4-0.7,0.8-1.2,1.3-1.7
		c-1.8-1.7-5.4-2.3-4.8-5.4c0.1-0.4-0.4-0.8-0.6-1c-0.2-0.2-0.8-0.2-1.1-0.3c0.3,0.7-0.3,0.8-0.2,1.9c0,0-0.1,0-0.1,0
		c-0.2-0.1-0.4-0.2-0.6-0.4c-0.2-0.1-0.4-0.1-0.6-0.1c-0.1,0-0.2,0.1-0.3,0.1c-0.2,0.1-0.3,0.3-0.4,0.4c0,0,0,0.1-0.1,0.1
		c0,0-0.1,0.2-0.1,0.2c0.1,0,0.4,0,0.4,0.1c0.1,0.1,0.1,0.3,0.2,0.4c0.1,0.2,0.2,0.2,0.4,0.2C63.6,94.6,63.8,94.7,64.2,94.7"/>
	<path class="st2" d="M68.9,93.4c1.1-0.1,2.2-0.9,3.5,0.5c-0.2-0.1-0.5-0.1-0.6,0c-1.4,1.1-3,0.7-3.9-0.6
		C68.1,93.2,68.6,93.4,68.9,93.4"/>
	<path class="st2" d="M73.7,97.5c1.8-0.9,3.7-1.7,4.5-3.9c0.1-0.4,0.5,0.7,0.5,0.7c1,2.8-1,5.5-0.6,8.4c-0.6-0.4-1.4-0.7-2.1-0.7
		c-2.5-0.1-3.1,1.5-3.3,1.3c-0.7-0.7-2.7-1.3-2.5-1.2C69,101,72.4,98.1,73.7,97.5"/>
	<path class="st2" d="M68.7,115.9c0.3,0.4-0.1-0.2,0.2,0.4c1.3-0.6,2.7-1.2,4.2-0.6c-0.7-3,1.5-3.7,1.7-4.2c0.3-0.7-1.2-2.1-2.3-1.7
		c-1.4,0.5-0.8,2.3-1.1,3.5c-0.1,0.7-1,1.2-1.7,0.9c-1.2-0.4-1.6-1.5-1.9-2.7c-0.2-0.8-1.8-0.9-2.1-0.2c-1,1.9,0.6-0.2,0.5,1.2
		c0,0.2-1.1,0.1-1.4,0.9c-0.2,0.6,0.4,1,1.1,1.2c0.1,0-0.1-0.3,0-0.4c0.1,0,0.6,0.2,0.6,0.3c-0.7,0.4-0.8,1.3,0.4,1.7
		c0,0-0.1-0.3,0-0.4C67.7,115.2,68.7,116,68.7,115.9"/>
	<path class="st2" d="M48.6,134.8c1.1,0.5,1.5,0,2.9-0.3c0.2,0,1,0.5,1.3,0.8C51.3,135.5,49.6,136.8,48.6,134.8"/>
	<path class="st2" d="M48,136c-0.1-0.1-0.2-0.1-0.3-0.1c-0.1,0-0.2-0.1-0.3-0.1c0,0-0.2,0-0.2-0.1c0,0.1,0.1,0.2,0,0.3
		c-0.1,0.1-0.2,0.1-0.3,0.2c0,0.1-0.1,0.1-0.1,0.2c0,0.1-0.1,0.3-0.1,0.4c0,0.1,0,0.2,0,0.3c0,0,0.1,0.2,0.1,0.2
		c0,0,0.2,0.2,0.2,0.2c0.2,0.2,0,0.1,0.3,0.3c0.1,0.1-0.1,0.3-0.2,0.3c-0.9-0.2-1-1.2-1.8-1.5c-0.6-0.2-1.4,0.2-1.5,1.1
		c0.2-0.1,0.4,0,0.4,0.2c0.2,0.9,1.5,0.4,1.5,1c0,0.4-1-0.1-1.3,0.2c-0.5,0.3-0.6,1.3-0.1,1.9c0.5-0.4,1,0.2,1.5-0.1
		c0.3-0.2,0.4-0.5,0.8-0.7c1-0.4,1.3,0.5,1.1,1.4c0.5-0.2,1.8-0.5,2.1-0.6c0.5-0.1,0.5-1.3,1.2-1.8c-0.9,0-2-0.4-2.3-1.3
		c0-0.1,0-0.2,0-0.3c0-0.3,0-0.7-0.1-1c0,0,0-0.1-0.1-0.1c0,0-0.1-0.1-0.1-0.1c-0.1-0.1-0.2-0.2-0.3-0.3C48.1,136,48.1,136,48,136"
		/>
	<path class="st2" d="M41.4,142.1c0.4,0.8-1.5-0.5-2.3,0.7c-0.2,0.4-0.1,1.2-0.1,1.6c0.4-0.4,0.9,0.4,1.7-0.4
		c0.1,0.1,0.2,0.1,0.1,0.3c-0.3,0.3-0.5,0.7-0.3,1.1c0.1,0.2,0.8,0.7,0.8,0.7c0.1-0.5,0.9,0,1.1-1c0.1-0.4,0.2-1.1,0.8-0.8
		c0.5,0.2,0.6,0.8,0.5,1.4c0.9-0.3,2.3-1.1,3.2-0.5c1.2,0.9,3.2,1.2,4.6,1.7c-0.9-0.6-1.2-2.3-1.1-3.4c-2.2,0.4-4.5,0.4-6.6-0.6
		c-0.6-0.3-0.5-0.9-0.7-1.4c-0.2-0.6-0.9-1.1-1.6-1.1c-0.4,0-1.3,0.8-1.1,0.8c-0.1,0-0.1,0.1-0.1,0.2c0.2-0.1,0.4,0,0.5,0.2
		c0.1,0.1,0.1,0.3,0.2,0.4C41.1,142,41.4,142,41.4,142.1"/>
	<path class="st2" d="M46.7,154.1c0.4-0.5,0.8-0.2,1-0.2c0.4,0,0.4,0.6,0.4,1c1.8-0.8,3.4-2.1,5.5-1.6c-1.2-1.3-0.8-3.9,0.9-4.3
		c0,0-1.1-0.2-1.2-0.3c-1.5-0.9-3.3-1.8-4.3,0.1c-0.5,1,0.4,1.8,1.1,2.6c0.1,0.1-0.1,0.2-0.2,0.3c-1.6,0.4-4.6,0.7-4.7-1.8
		c0-0.2-0.6-0.4-1-0.4c-1.2,0-1.2,1.6-1,1.4c0.3-0.2,1.1-0.1,1,0.5c-0.1,0.6-1.2-0.3-1.6,0.3c-0.4,0.5-0.4,1.3-0.1,1.8
		c-0.1-0.2,0.2-0.3,0.3-0.4c1.2-0.2,1.3,0.2,0.9,1.4c0,0.1,0.4,0.8,0.6,0.9c0,0,0-0.2,0-0.2c0-0.1,0.1-0.1,0.2-0.1
		c0.1,0,0.3,0,0.4-0.1c0.1,0,0.1-0.1,0.2-0.1c0.1-0.1,0.2-0.1,0.2-0.2c0.3-0.4,0.5-0.8,1-0.9C46.4,153.9,46.5,154,46.7,154.1"/>
	<path class="st2" d="M59.5,159.7c1.1-1.1,2-2.6,3.2-3.7c-1.3-0.8-3-1.6-3.1-3.3c0-0.1,0.2-0.2,0.2-0.2c1.8,1,4.3,1.1,5.7-0.8
		c1.1-1.5,1.5-4,3.6-4.1c-0.7-1.3,0.1-2.9,1.2-3.6c-0.4-0.1-0.9-0.5-1.3-0.4c-0.5,0.1-0.8,0.8-1.4,0.9c0.9-3.2-0.9-7.6-4.4-7.6
		c-0.7,0-1.5,0.5-1.7,1.3c-0.2,0.7-0.3,1.5,0.2,2.1c1.2,1.4,2,2.9,1.6,4.7c0.8-0.7,1.6-1.7,1.6-2.9c0-0.3,0.5-0.1,0.6-0.2
		c1-1.4-0.6-2.3-1.4-3.2c-0.2-0.2,0.4-0.6,0.4-0.6c3,0.9,3.3,4.6,2,7c-0.3-0.4-1.6-0.3-2.1-0.4c1.4,0.7,1,0.8,1,1
		c-0.1,0.4-1.4,0.2-1.6,0.5c-0.4,0.5-0.7,0.8-0.8,2.6c0.6-0.6,1.4-1.6,2.2-1.2c1.8,0.9-0.1,4-1.8,4.5c-1.4,0.4-2.8,0-3.6-1.3
		c-1.3-1.8-0.4-4-1.3-5.8c-0.8,0.2-0.6,1.2-1,1c-1.4-0.6-2.2-2.1-3.2-3.4c-0.4,0.1-0.6,0.5-1,0.5c-0.6,0-1.7-0.2-2,0.1
		c-0.3,0.3-0.5,2.9,2,3.8c1.7,0.6,3,1.2,4.1,2.5c-0.7,0.1-1-0.3-1.5-0.3c-0.6,0-0.9,0.2-1.4,0.4c-0.4,0.2-0.9,1-0.8,1.7
		c0.4,3.1,4,3.1,5.7,5c0.3,0.3-0.4,1.7-1.1,2.2c-0.6,0.5-2-0.7-1.7-1.7c0.2-0.8-1.7-1.3-2.4-0.4c0.3,0,0.3,0.1,0.3,0.3
		c-0.1,0.7,0.8,0.8,0.8,1.1c0,0.5-0.5-0.2-0.8-0.3c-0.8-0.2-1.5,0.1-2,0.7c-0.1,0.2-0.4,0.5-0.3,0.8c0.6-0.3,0.9,0.6,1.4,0.3
		c0.3-0.2,0.6-0.5,1-0.4c0.2,0,0.3,0.3,0.2,0.3c-1.1,0.7-1.9,1.6-1.1,2.7c0-0.3,0.2-0.4,0.4-0.5c0.3-0.1,0.7,0.1,1,0
		c0.5-0.2,0.2-0.7,0.4-1c0.3-0.6,1.3-1.5,1.9-0.8c0.1,0.1,0,0.6-0.3,0.6c0.3,0,0.6,0.3,0.9,0.2c0.1,0,0.2,0,0.2,0
		c0.1,0,0.1,0,0.2-0.1c0.1-0.1,0.3-0.3,0.3-0.5c0.2,0,0.5,0,0.7-0.2C59.3,159.9,59.5,159.8,59.5,159.7"/>
	<path class="st2" d="M54.4,137.6c2-0.6,4.2-1.6,4.7-3.8c0.6,0.4,0.8,1.2,0.8,1.7c0,2.7-1.2,5.1-0.6,8c0.1,0.3,0.7,1.3,0.4,1.2
		c-0.3-0.1-1-0.8-1.4-0.5c-0.5,0.4-0.4,1-0.7,0.8c-0.9-0.5-1.8-1.3-2.2-2.3c-0.2-0.4-0.1-1.2-0.2-1.1c-0.7,0.7-2,0.9-3,1
		c0.2-0.2,0.4-1,0.4-1.2c-0.8-0.4-1.9,0.9-1.9,0.8c0-0.4,0.1-0.6,0.1-0.7C51.4,139.9,52.5,138.1,54.4,137.6"/>
	<path class="st2" d="M39.7,90.9c0.5,0,0.9-0.3,1.2-0.7c0,0.3,0.4,0.7,0.2,1c-0.2,0.4-0.7,0.6-0.8,1c-0.2,0.7,0.4,1.4,0,2.2
		c-1.3,2.1-4,1.4-5.9,1.9c0.1-0.2,0-0.6-0.2-0.7c0.8,0.1,2-0.1,2.2-0.7c0.3-0.8,0.4-1.4,0-2c-0.6-1.1-1.9-0.6-2.8-0.2
		c-0.1-0.7,0.5-1.1,0.8-1.1c1-0.3,1.9-0.7,2.9-1C38.1,90.2,38.9,90.9,39.7,90.9 M38.3,92c0.1,0,0.1-0.1,0.1-0.1
		c-0.7-1-1.6-0.9-1.9,0C36.2,92.5,37.7,92.3,38.3,92"/>
	<path class="st2" d="M76.3,94.9c-0.3,0.2-0.7,0.2-1,0.4c-0.2,0.1-0.4,0.3-0.6,0.4c-0.1,0.1-0.4,0.2-0.5,0.2C74,96,74,96,73.8,96
		c-0.2,0-0.2,0-0.4,0c-0.2,0-0.6,0-0.8,0c-0.4,0-0.4,0-0.8,0c-0.2,0-0.4-0.1-0.6-0.2c-0.1,0-0.3-0.1-0.4-0.1c0-0.1,0-0.3,0.1-0.4
		c0.1-0.1,0.2,0,0.4,0c0,0,0.3,0,0.3,0c0.1,0,0.1,0,0.2,0c0.1,0,0.2,0,0.3-0.1c0.1-0.1,0.2-0.1,0.3-0.2c0,0,0.1-0.1,0.1-0.1
		c0.1-0.1,0.2-0.1,0.2-0.2c0.2-0.2,0.4-0.5,0.4-0.8c0-0.2,0-0.5,0-0.7c0,0,0-0.1,0-0.1c0-0.2-0.1-0.4-0.2-0.5c-0.6-1-1.9,0-2.8-0.1
		c0-0.2,0-0.6,0.1-0.7c0.6-0.8,1.6-0.4,2.2-0.8c1.7-1.3,2.2-0.4,4,0.1c0.5,0.2,1.3-0.2,1.8-0.4c0.1-0.1,0.1,0.8,0.1,0.9
		c-0.2,0.6-0.8,0.5-1,1.1C77,93.6,77,94.7,76.2,95 M75,91.6C75.1,91.5,75,91.6,75,91.6c-0.8-0.4-1.8-0.9-2.2,0.1
		C72.6,92.5,74.4,91.9,75,91.6"/>
	<path class="st2" d="M56.9,132c0.8,0.2,1.7,0.2,2.2-0.5c0.3,1.1-0.7,1.2-0.9,1.8c-0.3,0.8-0.3,1.6-1,2c-1.6,0.8-3.5,1.8-5.3,2
		c0-0.2-0.1-0.6,0.2-0.6c0.6,0,1.1-0.5,1.3-0.9c0.2-0.5,0-1.8-0.5-2c-0.5-0.3-1,0.2-1.5,0.4c-0.2-0.5,0.6-1.5,2-1.4
		c0,0,0.7-0.8,0.6-0.7C54.7,131.4,55.7,131.7,56.9,132 M54.5,133.4c0.3,0.1,1.2-0.4,1.6-0.6c0.1,0,0.1-0.1,0.2-0.2c0,0,0,0,0,0
		c-0.3-0.1-0.5-0.1-0.8-0.1c-0.2,0-0.3-0.2-0.5-0.2c-0.1,0-0.1,0-0.2,0c-0.1,0-0.1,0.1-0.2,0.1c-0.1,0-0.2,0-0.3,0.1
		c-0.1,0.1-0.2,0.2-0.2,0.3c0,0.1,0,0.3,0.1,0.4C54.3,133.3,54.4,133.4,54.5,133.4"/>
	<path class="st2" d="M81.3,124.4c0-0.3,0.6-1,0.7-1.6c0.1-2,1.2-2.9,1.3-5c0-0.5-2.3-1.1-2.4-2.2c0-0.6-0.2-1.4,0.3-1.4
		c0.8,0,1.5-0.1,2-0.6c2.4-2.1,0.4-4.9,0.1-7.4c-0.1-0.6,1-1.7,0.9-2.1c-0.2-2.1-0.6-4.1,0.2-6.2c-0.6,0.5-0.8,1.4-1.3,1.9
		c-0.2,0.2-0.4-0.3-0.3-0.3c0.3-1.8,1-3.5,1.9-5.2c1-2.1,0.5-3.8-1.4-4.4c-1.7-0.6-3.4,1-3.6,2.7c-0.2,1.5,0.3,3.3,0.7,4.5
		c0.1,0.4,0,0.8,0.1,1.1c0.3-1.2,0.3-2.5,0.3-3.9c0-0.3,0.3-0.8,0.6-0.8c1.1-0.3,1.7,0.5,1.6,1.1c-0.2,2-0.6,3.5-1.1,5.4
		c-0.5,2.2,0.3,4.4,0.5,6.6c-0.9-0.5-1.8-0.5-2.1,0.8c-0.2,0.7,0.5,1.5,0.7,2.1c0-0.9,0.8-2,1.6-1.5c1,0.6,1,3.7,0.8,4.1
		c-0.5,0.9-1.2,1.5-2.3,1.2c-0.6-0.2-0.4-1.1-0.7-1.4c-1.9-2-2.8-4.3-3-7.1c0-0.4,0.2-1.4,0.1-1.5c-2.5-1-3.7,0-4.7,1.5
		c-0.2-0.4-1.1-1.1-1.2-0.9c-0.5,0.9-0.3,2.5,0.4,3.1c1.9,1.7,3.9,2.8,4.9,5.2c-1.2,0.1-2.3,0.5-2.7,1.7c-0.5,1.3-0.3,3,1,3.5
		c1.1,0.4,3,0,3.4,0c1.2,0.2,2.5,1.1,2.3,2.2c0,0.1-0.5,2.6-1.6,2c-0.6-0.3-0.3-1.7-1.2-2c-1.2-0.3-1.5,1.4-1.4,1.3
		c0.4-0.4,0.7,0.2,1.4,0.7c-2.6-0.6-1.8,1.8-1.7,1.5c0.1-0.4,0.6,0,1.5,0c0,0-0.2,0.2-0.2,0.2c-0.1,0.2-0.2,0.4-0.3,0.6
		c-0.1,0.1,0,0.2,0,0.4c0,0.1,0.1,0.2,0.1,0.3c0,0,0,0,0.1,0.1c0,0,0,0.1,0.1,0.1c0.1,0-0.1-0.2,0.1-0.2c0,0,0.1,0,0.2,0
		c0.1,0,0.2,0.1,0.2,0.1c0.1,0,0.1,0,0.2,0c0.2,0,0.2,0,0.4,0c0.1,0,0.3-0.1,0.4-0.2c-0.2,0.1,0.2-0.2,0.2-0.1
		c0.2-0.3,0.3-0.2,0.3-0.3c0.3-0.5,0.5-0.6,1.1-0.5c0.1,0,0.2,0.1,0.2,0.2c0,0.1,0.2,0.4,0.1,0.3C81.1,124,81.3,124.2,81.3,124.4"/>
	<path class="st2" d="M62.7,100.8c-0.2-0.1-0.2-0.3-0.3-0.4c0,0-0.1-0.1-0.1-0.1c-0.1-0.1-0.1-0.1-0.1-0.2c-0.1-0.4-0.1-0.8,0.3-1
		c0,0,0,0,0,0c0,0,0.1-0.1,0.1-0.1c0,0,0.1,0,0-0.1c0,0,0,0,0,0c0.1-0.1,0.1-0.2-0.1-0.3c0.1,0,0.2,0,0.3,0c0,0,0.1,0,0.1,0
		c0.4,0.1,0.9,0.2,1,0.6l0.1,0.2c0.4,1,0.3,3.4,2.6,4c1.2,0.3,2.5,0.7,3.7,0.7c-0.3,1.2-0.3,2.8,0.7,3.7c-1.4-0.8-2.4-0.6-3.6-1.8
		c-0.6-0.5-1.8-1.2-2.4-1.1c-0.3,0,0.4-0.8-0.2-1c-0.4-0.1-1.4-0.1-1.5,0.2c-0.8,1.2-1.7,1.2-2,1.5c0.3-0.3-1.3-1.6,0.7-2.4
		c0.2-0.1,0.3-0.5,0-0.6c-0.4-0.2-0.7,0.1-1.1,0.3c-0.5,0.3-0.6-0.7-1.3-0.4c-0.1-2.1,1.7-2.3,2.9-1c0.1,0.1,0.4,0,0.3-0.1
		L62.7,100.8z"/>
	<path d="M19.4,86.2l0,0.7c0,1.6,0.1,3.1,0.1,4.7c0.4,20.2,0.8,39.3,12.8,57.7c5,7.6,12.6,13.9,22,18.2l0.3,0.1l0.3-0.1
		c9.4-4.4,17-10.7,22-18.2c12-18.3,12.4-37.4,12.8-57.7c0-1.6,0.1-3.1,0.1-4.7l0-0.7H19.4z M27,135.9L54.7,114l27.6,21.8
		c-0.7,1.8-1.5,3.6-2.3,5.4l-25.3-20l-25.4,20C28.5,139.5,27.7,137.7,27,135.9z M75.8,148.5c-4.8,7.3-12.1,13.4-21.1,17.6
		c-9.1-4.2-16.4-10.3-21.2-17.6c-0.8-1.2-1.5-2.4-2.2-3.7l23.5-18.5l23.4,18.4C77.4,146.1,76.6,147.3,75.8,148.5z M88.5,91.6
		c-0.3,13.9-0.6,27.3-4.7,40.2l-29-22.9l-29.1,23c-4.1-12.9-4.4-26.4-4.7-40.3c0-1.3-0.1-2.7-0.1-4h67.7
		C88.5,88.9,88.5,90.2,88.5,91.6z"/>
	<g>
		<rect x="-51.7" y="26.7" class="st3" width="504" height="200.5"/>
	</g>
</g>
</svg>
